<svg width="512" height="512" viewBox="0 0 512 512" fill="none" xmlns="http://www.w3.org/2000/svg">
  <rect width="512" height="512" rx="64" fill="#c62828"/>
  <path d="M256 96C169.28 96 96 169.28 96 256C96 342.72 169.28 416 256 416C342.72 416 416 342.72 416 256C416 169.28 342.72 96 256 96ZM256 384C186.88 386 128 326.24 128 256C128 186.88 186.88 128 256 128C325.12 128 384 186.88 384 256C384 325.12 325.12 384 256 384Z" fill="white"/>
  <path d="M256 160C204.64 160 160 204.64 160 256C160 307.36 204.64 352 256 352C307.36 352 352 307.36 352 256C352 204.64 307.36 160 256 160ZM256 320C222.24 320 192 291.84 192 256C192 222.24 220.16 192 256 192C291.84 192 320 220.16 320 256C320 291.84 291.84 320 256 320Z" fill="white"/>
  <circle cx="256" cy="256" r="32" fill="white"/>
</svg>
