<svg width="192" height="192" viewBox="0 0 192 192" fill="none" xmlns="http://www.w3.org/2000/svg">
  <rect width="192" height="192" rx="32" fill="#c62828"/>
  <path d="M96 40C67.28 40 44 63.28 44 92C44 120.72 67.28 144 96 144C124.72 144 148 120.72 148 92C148 63.28 124.72 40 96 40ZM96 132C73.92 132 56 114.08 56 92C56 69.92 73.92 52 96 52C118.08 52 136 69.92 136 92C136 114.08 118.08 132 96 132Z" fill="white"/>
  <path d="M96 64C80.56 64 68 76.56 68 92C68 107.44 80.56 120 96 120C111.44 120 124 107.44 124 92C124 76.56 111.44 64 96 64ZM96 108C87.16 108 80 100.84 80 92C80 83.16 87.16 76 96 76C104.84 76 112 83.16 112 92C112 100.84 104.84 108 96 108Z" fill="white"/>
  <circle cx="96" cy="92" r="12" fill="white"/>
</svg>
